<svg width="443" height="393" viewBox="0 0 443 393" fill="none" xmlns="http://www.w3.org/2000/svg">
<path d="M57.1033 293.805C62.2884 291.253 68.3944 290.92 74.1511 291.829C77.2437 292.317 80.4679 293.199 82.5722 295.414C84.6764 297.63 85.0754 301.53 82.659 303.433C81.221 304.567 79.2153 304.736 77.349 304.718C72.8429 304.668 67.8422 303.912 64.2424 306.498C62.1879 307.973 60.8211 310.426 58.3647 311.151C55.9628 311.861 53.2508 310.509 51.9777 308.44C50.807 306.286 50.5482 303.786 51.2548 301.455C51.5462 299.836 52.2256 298.304 53.2401 296.977C54.2545 295.65 55.5766 294.564 57.1033 293.805Z" fill="#EBEBEB"/>
<path d="M45.2238 271.931C48.3944 276.25 54.557 274.816 57.4183 272.183C60.2796 269.551 61.4825 265.726 62.5819 262.082C65.094 253.757 67.6265 245.022 65.7583 236.544C65.309 233.974 64.126 231.572 62.339 229.601C61.4341 228.63 60.2775 227.903 58.9851 227.492C57.6927 227.082 56.31 227.003 54.9755 227.263C51.8674 228.046 49.9367 230.949 48.5368 233.71C44.4255 241.863 42.271 250.788 42.2298 259.836C42.2142 264.043 42.7352 268.457 45.2238 271.932" fill="#EBEBEB"/>
<path d="M36.516 278.128C39.9588 274.231 40.6134 268.544 39.0808 263.666C37.5482 258.787 34.0879 254.63 30.0998 251.239C25.406 247.254 19.9432 244.18 14.0167 242.188C11.7226 241.304 9.25526 240.905 6.78396 241.016C5.54971 241.085 4.35161 241.439 3.29378 242.05C2.23595 242.66 1.35039 243.508 0.714043 244.519C-0.97855 247.598 0.644778 251.333 2.39981 254.382C5.49412 259.752 9.02611 264.883 12.9631 269.725C16.1288 273.618 19.756 277.458 24.5811 279.216C29.4062 280.974 34.4186 280.768 36.9765 277.577" fill="#EBEBEB"/>
<path d="M45.0095 337.088C45.1762 336.446 45.2723 335.789 45.2963 335.129C45.4416 333.7 45.6251 331.907 45.8426 329.772C46.1222 327.134 46.5439 324.512 47.1059 321.916C47.8425 318.753 48.8437 315.652 50.0999 312.642C51.3312 309.636 53.0026 306.811 55.0646 304.252C56.7425 302.169 58.8865 300.469 61.3403 299.276C63.004 298.489 64.788 297.959 66.6259 297.705C67.3172 297.681 68.0039 297.587 68.6746 297.426C67.9828 297.344 67.2839 297.334 66.5898 297.395C64.682 297.534 62.8157 297.997 61.0789 298.763C58.4947 299.928 56.2284 301.648 54.4578 303.788C52.3073 306.382 50.573 309.267 49.3117 312.348C48.0361 315.402 47.0415 318.555 46.3392 321.773C45.8063 324.402 45.4407 327.059 45.2446 329.729C45.0661 332.004 44.9987 333.846 44.9656 335.119C44.9059 335.775 44.9207 336.435 45.0095 337.088Z" fill="#E0E0E0"/>
<path d="M45.3959 332.966C45.4519 332.666 45.4706 332.36 45.4515 332.055C45.4515 331.371 45.4515 330.509 45.4446 329.45C45.4378 327.19 45.4388 323.919 45.5656 319.881C45.7753 311.803 46.5051 303.109 47.9128 290.849C49.2464 279.325 51.0346 265.912 52.9262 257.192C53.331 255.209 53.7388 253.424 54.1232 251.862C54.489 250.295 54.8061 248.945 55.1036 247.853L55.7416 245.321C55.834 245.029 55.89 244.727 55.9085 244.423C55.7631 244.694 55.6517 244.98 55.5768 245.276C55.369 245.927 55.1066 246.757 54.7846 247.772C54.4324 248.855 54.0725 250.196 53.6608 251.756C53.2325 253.312 52.7828 255.093 52.3389 257.073C49.9994 267.386 48.2409 277.811 47.0709 288.303C45.6593 300.586 45.0222 311.768 44.9676 319.866C44.9169 323.914 45.0076 327.193 45.1159 329.45C45.1832 330.508 45.2388 331.37 45.2827 332.055C45.2821 332.362 45.3201 332.668 45.3959 332.966Z" fill="#E0E0E0"/>
<path d="M45.4522 311.401C45.5208 310.495 45.5143 309.585 45.4327 308.68C45.3273 306.932 45.0756 304.406 44.5547 301.31C43.9301 297.688 43.0907 294.103 42.0407 290.571C40.8162 286.226 39.2439 281.976 37.3375 277.86C34.0706 270.273 29.3856 263.316 23.5109 257.326C22.4914 256.3 21.4051 255.337 20.2584 254.442C19.7589 254.039 19.318 253.638 18.8682 253.319L17.6068 252.49C16.8481 251.942 16.0453 251.452 15.206 251.024C15.0694 251.201 18.6077 253.187 23.0768 257.724C28.7572 263.762 33.3159 270.681 36.557 278.182C38.4266 282.274 40.0085 286.481 41.2924 290.773C42.5265 294.718 43.3469 298.347 43.9664 301.405C44.5517 304.469 44.8961 306.97 45.1019 308.703C45.1461 309.609 45.2632 310.512 45.4522 311.401Z" fill="#E0E0E0"/>
<path d="M22.083 346.168L24.3492 375.778H64.2291L66.4953 346.168H22.083Z" fill="#EBEBEB"/>
<path d="M71.253 334.497H18.2305V346.167H71.253V334.497Z" fill="#EBEBEB"/>
<path d="M18.2305 374.645V377.88H70.377V374.645H18.2305Z" fill="#E0E0E0"/>
<path d="M23.1635 383.214L20.7246 377.521H68.4772L65.6286 383.214H23.1635Z" fill="#E0E0E0"/>
<path d="M65.7536 355.846C65.705 355.944 65.6426 356.035 65.5682 356.117C65.4092 356.317 65.2131 356.566 64.9722 356.871L62.6484 359.707L62.5508 359.833L62.4533 359.701L56.7453 352.172H57.074L51.4548 359.761L51.2782 359.999L51.0831 359.775L44.4191 352.212L44.8035 352.207L44.4367 352.646L38.478 359.772L38.2828 360.01L38.0994 359.763L32.4597 352.175L32.7865 352.19L25.8601 359.715L25.7372 359.849L25.6396 359.698L23.4846 356.223L22.9285 355.298C22.858 355.196 22.801 355.085 22.7588 354.969C22.8492 355.057 22.9273 355.155 22.991 355.262C23.1529 355.496 23.3558 355.789 23.6065 356.153C24.1607 356.982 24.9245 358.127 25.8825 359.563L25.666 359.546L32.4783 351.93L32.6509 351.738L32.8061 351.945L38.478 359.498L38.0965 359.488L44.0416 352.352L44.4084 351.912L44.5976 351.685L44.7927 351.908L51.4382 359.486L51.0656 359.5L56.7404 351.949L56.9072 351.727L57.0692 351.949C59.3178 355.011 61.227 357.613 62.6562 359.56L62.4533 359.554L64.8697 356.79L65.5175 356.076C65.6638 355.917 65.7448 355.838 65.7536 355.846Z" fill="#F5F5F5"/>
<path d="M67.0488 345.973C67.0488 346.103 57.0561 346.209 44.7329 346.209C32.4096 346.209 22.4141 346.103 22.4141 345.973C22.4141 345.843 32.4048 345.736 44.7329 345.736C57.061 345.736 67.0488 345.842 67.0488 345.973Z" fill="#F5F5F5"/>
<path d="M392.956 44.7348L390.889 41.5265C373.466 14.4852 341.966 -1.81622 308.754 0.162025C304.479 0.414033 300.23 0.963558 296.039 1.80622C265.843 7.89448 239.569 29.4011 228.678 56.9458C222.273 73.1448 220.483 91.7967 208.329 104.655C192.51 121.389 165.654 121.915 142.042 121.218C118.429 120.521 91.5555 121.117 75.8139 137.917C65.9549 148.439 62.8224 163.401 63.6195 177.492C65.7237 214.799 93.3242 248.155 128.425 264.736C163.525 281.316 204.852 282.801 243.267 275.507C297.083 265.29 348.261 237.23 379.023 193.892C409.786 150.554 417.568 91.511 392.956 44.7348Z" fill="#C4C4C4"/>
<path d="M430.933 384.772C430.933 384.906 337.169 385.015 221.532 385.015C105.856 385.015 12.1123 384.906 12.1123 384.772C12.1123 384.638 105.856 384.53 221.532 384.53C337.169 384.53 430.933 384.638 430.933 384.772Z" fill="#263238"/>
<path d="M123.195 43.2786C127.799 48.6459 130.289 55.3796 130.236 62.3138C130.192 66.2386 129.434 70.5673 131.827 73.7589C133.644 76.1782 136.957 77.3944 138.433 80.0193C140.208 83.1765 138.694 87.1647 139.787 90.5926C141.335 95.4517 147.299 97.4783 150.84 101.278C152.357 102.948 153.421 104.947 153.939 107.101C154.457 109.255 154.412 111.497 153.808 113.63C153.163 115.752 151.996 117.696 150.405 119.302C148.815 120.908 146.846 122.129 144.662 122.865C142.327 123.743 139.723 123.701 137.42 122.749C135.027 121.612 133.549 119.278 132.347 116.998C129.991 112.517 109.337 88.272 108.167 83.385" fill="#263238"/>
<path d="M108.17 37.5625C99.7246 36.2654 91.6069 41.6139 88.0491 49.0337C84.4912 56.4535 84.3927 64.8922 84.1303 73.0481C83.8678 81.2039 83.2679 89.717 78.9022 96.7349C76.1326 101.189 71.8421 105.095 71.17 110.235C70.5671 114.835 73.0645 119.469 72.2353 124.038C71.5134 128.015 68.333 131.477 68.4618 135.512C68.613 140.366 73.8479 144.024 78.9374 144.154C84.0268 144.284 88.7827 141.74 92.7737 138.724C99.2718 133.801 104.473 127.497 107.961 120.316" fill="#263238"/>
<path d="M94.2759 56.7728C94.0102 54.7459 94.1741 52.6888 94.7578 50.7236C95.3414 48.7583 96.3331 46.9249 97.6738 45.3321C99.0145 43.7393 100.677 42.4196 102.563 41.4513C104.448 40.483 106.519 39.8859 108.651 39.6953C117.176 38.9202 124.747 44.975 126.029 53.0508C127.149 60.1309 128.112 67.2772 128.078 69.8733C127.974 77.6997 123.173 80.7471 121.227 81.6618C120.527 81.9044 119.804 82.0762 119.067 82.1745C119.059 82.1755 119.052 82.1779 119.046 82.1816C119.04 82.1852 119.034 82.1901 119.03 82.1958C119.026 82.2016 119.023 82.2081 119.021 82.215C119.02 82.2218 119.02 82.229 119.021 82.2359L120.843 91.2208C121.67 97.1071 118.224 102.358 112.063 103.215C105.881 104.074 101.048 99.5525 100.104 93.6615L94.2759 56.7728Z" fill="#FFBE9D"/>
<path d="M124.348 56.4758C124.212 56.6619 123.128 56.1036 121.739 56.3009C120.35 56.4786 119.434 57.3021 119.259 57.1607C119.174 57.0993 119.293 56.7885 119.69 56.4163C120.228 55.9355 120.91 55.6257 121.641 55.5295C122.363 55.426 123.101 55.545 123.747 55.8691C124.226 56.1232 124.415 56.393 124.348 56.4758Z" fill="#263238"/>
<path d="M111.994 59.338C111.859 59.5241 110.774 58.9658 109.387 59.164C107.997 59.3408 107.082 60.1643 106.906 60.0229C106.821 59.9614 106.938 59.6507 107.337 59.2785C107.876 58.7974 108.557 58.4875 109.288 58.3917C110.01 58.2884 110.748 58.4074 111.394 58.7313C111.871 58.9854 112.066 59.2552 111.994 59.338Z" fill="#263238"/>
<path d="M117.058 66.4404C117.757 66.1207 118.495 65.885 119.255 65.7388C119.604 65.6551 119.93 65.5406 119.955 65.3015C119.931 64.948 119.795 64.6098 119.564 64.3319C119.106 63.5596 118.625 62.7495 118.122 61.9015C116.105 58.4363 114.589 55.5666 114.736 55.4903C114.884 55.414 116.638 58.1609 118.655 61.626C119.143 62.4821 119.611 63.3009 120.056 64.0788C120.343 64.4557 120.481 64.917 120.446 65.3815C120.413 65.508 120.35 65.6255 120.262 65.7253C120.174 65.825 120.063 65.9045 119.938 65.9575C119.749 66.0351 119.551 66.0902 119.348 66.1213C118.602 66.3207 117.833 66.4279 117.058 66.4404Z" fill="#263238"/>
<path d="M119.006 82.1781C119.006 82.1781 113.706 83.3441 106.41 80.4307C106.41 80.4307 109.56 86.8986 119.497 84.5993L119.006 82.1781Z" fill="#EB996E"/>
<path d="M111.296 55.8674C111.214 56.247 109.8 56.2685 108.199 56.6825C106.59 57.0659 105.345 57.7061 105.077 57.4111C104.957 57.2697 105.134 56.8993 105.613 56.476C106.257 55.9498 107.018 55.5704 107.838 55.3668C108.659 55.1632 109.517 55.1406 110.348 55.3007C110.983 55.4468 111.329 55.6878 111.296 55.8674Z" fill="#263238"/>
<path d="M123.208 53.5402C123.013 53.8752 122.005 53.6956 120.851 53.8407C119.693 53.9478 118.757 54.3386 118.485 54.0548C118.363 53.9161 118.471 53.5895 118.853 53.2489C119.373 52.8279 120.012 52.5636 120.689 52.4898C121.367 52.4159 122.052 52.5357 122.658 52.8339C123.112 53.087 123.293 53.3783 123.208 53.5402Z" fill="#263238"/>
<path d="M108.984 61.0493C109.039 61.3319 109.207 61.5829 109.453 61.7489C109.699 61.9149 110.003 61.9827 110.3 61.938C110.447 61.9222 110.588 61.8785 110.717 61.8097C110.845 61.7408 110.958 61.6481 111.049 61.537C111.139 61.4259 111.205 61.2987 111.243 61.1629C111.281 61.027 111.29 60.8853 111.27 60.746C111.216 60.4636 111.048 60.2127 110.802 60.0465C110.557 59.8804 110.253 59.8122 109.956 59.8564C109.809 59.8721 109.667 59.9157 109.538 59.9845C109.41 60.0534 109.297 60.1461 109.206 60.2573C109.116 60.3685 109.049 60.4959 109.011 60.6319C108.973 60.7679 108.964 60.9099 108.984 61.0493Z" fill="#263238"/>
<path d="M121.283 58.5108C121.338 58.7933 121.506 59.0443 121.752 59.2103C121.997 59.3763 122.302 59.4442 122.599 59.3994C122.746 59.3836 122.887 59.34 123.016 59.2711C123.144 59.2023 123.257 59.1096 123.348 58.9985C123.438 58.8874 123.504 58.7602 123.543 58.6244C123.581 58.4885 123.59 58.3467 123.57 58.2074C123.515 57.925 123.347 57.674 123.102 57.5079C122.856 57.3418 122.552 57.2736 122.255 57.3179C122.108 57.3336 121.966 57.3771 121.837 57.446C121.708 57.5148 121.595 57.6076 121.505 57.7188C121.414 57.8299 121.348 57.9573 121.31 58.0933C121.272 58.2294 121.263 58.3713 121.283 58.5108Z" fill="#263238"/>
<path d="M119.243 69.0208C118.86 68.9111 118.45 68.9311 118.08 69.0775C117.711 69.2238 117.407 69.4875 117.218 69.8238C117.038 70.1349 116.964 70.4922 117.009 70.8451C117.053 71.1981 117.212 71.5289 117.464 71.7909C117.729 72.0405 118.079 72.1916 118.45 72.2167C118.822 72.2417 119.191 72.1392 119.49 71.9277C119.869 71.6022 120.098 71.1475 120.127 70.6622C120.194 70.2178 120.082 69.7657 119.812 69.3976C119.673 69.2184 119.478 69.0867 119.254 69.0221C119.031 68.9576 118.792 68.9636 118.572 69.0394" fill="#EB996E"/>
<path d="M124.942 46.714C124.176 43.764 122.265 41.2011 119.594 39.5426C117.407 38.0414 114.813 37.1736 112.122 37.0433C109.414 36.9301 106.77 37.8457 104.77 39.5892C103.368 40.9289 102.569 42.7371 102.543 44.6297L102.698 43.327C102.294 44.3868 102.3 45.5493 102.715 46.6051C102.943 47.1755 103.213 47.745 103.454 48.3172C104.15 49.9576 105.446 51.3021 107.1 52.1025C107.849 52.4868 108.689 52.6816 109.539 52.6683C109.963 52.6588 110.38 52.5625 110.761 52.3859C111.142 52.2093 111.479 51.9565 111.749 51.6447C112.354 50.6343 112.543 49.4448 112.278 48.3089C112.915 49.4454 113.828 50.4203 114.94 51.1525C115.506 51.5022 116.182 51.6534 116.852 51.5805C117.522 51.5075 118.144 51.2148 118.613 50.7524C119.408 49.7679 119.094 48.3526 118.633 47.1895C119.385 48.2801 120.44 49.1499 121.68 49.7018C122.008 49.8797 122.37 49.9908 122.745 50.0279C123.12 50.0651 123.499 50.0276 123.858 49.9177C124.145 49.7827 124.396 49.5867 124.592 49.3448C124.788 49.1028 124.923 48.8214 124.987 48.522C125.111 47.9234 125.096 47.3063 124.942 46.714Z" fill="#263238"/>
<path d="M117.894 49.1444C117.805 49.1444 117.82 48.0417 117.444 46.3259C116.999 44.0895 115.819 42.0462 114.075 40.4917C113.113 39.6628 111.955 39.0666 110.7 38.7535C109.671 38.5122 108.599 38.4868 107.559 38.679C106.599 38.8983 105.683 39.2607 104.842 39.7528C104.825 39.7352 105.012 39.5165 105.441 39.2206C106.058 38.8107 106.75 38.5135 107.481 38.3441C108.573 38.0913 109.712 38.0831 110.808 38.3199C112.15 38.6253 113.389 39.2476 114.412 40.1297C116.241 41.7455 117.435 43.9092 117.797 46.2617C117.919 46.9587 117.978 47.6645 117.973 48.3711C117.995 48.6313 117.968 48.8932 117.894 49.1444Z" fill="#455A64"/>
<path d="M207.743 157.632L170.231 143.446C170.231 143.446 151.013 119.41 151.416 118.944L137.928 133.037L157.536 158.347L202.965 168.489L224.48 168.655C222.812 160.767 207.743 157.632 207.743 157.632Z" fill="#FFBE9D"/>
<path d="M125.984 89.0657L120.877 87.1777L98.8085 89.8492V93.5712L98.1764 93.6447C93.4169 94.6073 88.8519 96.2975 84.6581 98.6499C80.725 100.932 77.5978 104.284 75.6788 108.275C73.7598 112.267 73.1368 116.714 73.8899 121.046C74.7874 126.369 76.5239 132.838 79.8778 136.578C86.2872 143.728 92.1396 134.891 92.1396 134.891C92.1396 134.891 96.1628 143.638 95.9316 147.781C95.7365 151.247 94.1307 158.47 93.6137 160.725C93.5932 160.815 93.5919 160.908 93.61 160.999C93.628 161.089 93.6651 161.175 93.7188 161.251C93.7726 161.328 93.842 161.393 93.9228 161.443C94.0036 161.493 94.0943 161.527 94.1893 161.543L140.742 169.753L140.969 158.901L139.489 114.263L137.43 96.921C137.43 96.921 137.5 88.6395 125.984 89.0657Z" fill="#683C95"/>
<path d="M136.721 94.0364L154.47 118.497L140.18 135.1L136.721 94.0364Z" fill="#683C95"/>
<path d="M140.525 145.512C140.458 144.987 140.434 144.458 140.456 143.93C140.441 142.833 140.422 141.384 140.399 139.632C140.309 134.91 139.954 130.195 139.336 125.51C138.678 120.828 137.774 116.18 136.627 111.585L135.595 107.397C135.443 106.89 135.333 106.372 135.268 105.848C135.482 106.334 135.656 106.836 135.787 107.349C136.09 108.323 136.503 109.74 136.976 111.502C138.23 116.089 139.186 120.746 139.84 125.445C140.468 130.148 140.775 134.885 140.758 139.626C140.739 141.444 140.712 142.916 140.653 143.931C140.655 144.46 140.612 144.989 140.525 145.512Z" fill="#263238"/>
<path d="M96.8461 108.319C96.8461 108.398 95.4989 108.381 93.3341 108.492C87.6986 108.768 82.1407 109.866 76.854 111.748C74.8239 112.466 73.5976 112.99 73.5625 112.919C73.8109 112.73 74.0857 112.575 74.379 112.458C74.9166 112.186 75.7175 111.831 76.7204 111.429C81.9883 109.351 87.6196 108.239 93.3195 108.15C94.4092 108.138 95.2911 108.16 95.8989 108.206C96.2186 108.201 96.5374 108.239 96.8461 108.319Z" fill="#FAFAFA"/>
<path d="M137.965 119.518C137.251 119.761 136.507 119.915 135.752 119.977C132.145 120.482 128.49 120.601 124.855 120.332C124.096 120.321 123.342 120.215 122.611 120.019C123.361 119.939 124.118 119.929 124.87 119.99C126.259 120.014 128.177 120.028 130.293 119.96C132.409 119.892 134.321 119.751 135.705 119.636C136.453 119.527 137.209 119.487 137.965 119.518Z" fill="#FAFAFA"/>
<path d="M146.112 108.447C143.844 110.727 140.986 112.396 137.826 113.286C137.771 113.153 139.763 112.312 142.039 110.977C144.315 109.642 146.014 108.339 146.112 108.447Z" fill="#FAFAFA"/>
<path d="M138.939 97.1072C135.863 99.7571 131.941 101.341 127.806 101.604C127.78 101.455 130.494 101.062 133.572 99.8047C136.66 98.569 138.845 96.9834 138.939 97.1072Z" fill="#FAFAFA"/>
<path d="M139.908 138.455C139.623 138.647 139.313 138.803 138.986 138.92C138.381 139.194 137.485 139.544 136.36 139.937C130.468 141.967 124.218 142.883 117.959 142.636C116.762 142.583 115.796 142.505 115.13 142.417C114.782 142.4 114.438 142.341 114.105 142.24C114.113 142.161 115.585 142.275 117.965 142.293C124.169 142.352 130.341 141.447 136.241 139.615C138.503 138.912 139.876 138.381 139.908 138.455Z" fill="#FAFAFA"/>
<path d="M140.269 151.071C140.142 151.164 140.002 151.24 139.853 151.296L138.617 151.854C137.544 152.34 135.955 152.971 133.965 153.68C131.975 154.389 129.565 155.139 126.855 155.849C120.96 157.368 114.908 158.264 108.808 158.519C105.998 158.625 103.464 158.612 101.342 158.506C99.2188 158.4 97.5057 158.263 96.3292 158.111L94.9741 157.935C94.8141 157.926 94.6564 157.894 94.5059 157.842C94.6648 157.821 94.8259 157.821 94.9849 157.842L96.3506 157.927C97.5311 158.02 99.2432 158.114 101.358 158.167C103.473 158.221 105.994 158.207 108.787 158.074C111.579 157.918 114.64 157.642 117.833 157.179C121.021 156.698 124.026 156.076 126.736 155.418C129.439 154.735 131.849 154.031 133.844 153.358C135.839 152.684 137.446 152.113 138.541 151.683L139.809 151.208C139.955 151.142 140.11 151.096 140.269 151.071Z" fill="#FAFAFA"/>
<path d="M54.6709 348.879L49.4029 371.614L39.7917 388.447C39.6278 388.734 39.5276 389.05 39.4972 389.376C39.4668 389.701 39.5069 390.03 39.615 390.34C39.7231 390.65 39.897 390.936 40.1257 391.179C40.3545 391.423 40.6333 391.619 40.9448 391.755C41.3065 391.915 41.7032 391.99 42.1013 391.972C42.4994 391.955 42.8874 391.847 43.2325 391.657C47.7016 389.194 64.0958 380.055 64.3836 378.371C64.7172 376.417 71.6144 354.742 71.6144 354.742L54.6709 348.879Z" fill="#683C95"/>
<g opacity="0.6">
<path opacity="0.6" d="M40.9473 391.757L64.7792 376.847L64.5324 377.804C64.3209 378.633 63.8074 379.363 63.0837 379.864C61.1442 381.199 55.7045 384.774 43.3062 391.681C42.9504 391.879 42.5489 391.99 42.1374 392.004C41.7258 392.018 41.317 391.935 40.9473 391.762V391.757Z" fill="white"/>
</g>
<g opacity="0.6">
<path opacity="0.6" d="M61.7866 368.414C61.4414 368.549 61.1609 368.801 60.9988 369.121C60.8367 369.442 60.8046 369.808 60.9086 370.15C61.0392 370.482 61.2982 370.754 61.6324 370.91C61.9666 371.066 62.3506 371.093 62.7056 370.988C63.0704 370.843 63.3659 370.574 63.535 370.233C63.704 369.893 63.7345 369.504 63.6206 369.143C63.448 368.809 63.1461 368.552 62.7785 368.426C62.4109 368.299 62.0064 368.314 61.65 368.467" fill="white"/>
</g>
<path d="M48.9059 383.143C48.5168 382.303 47.9647 381.541 47.2787 380.897C46.4948 380.365 45.6123 379.98 44.6778 379.761C44.671 379.701 45.0164 379.595 45.591 379.65C46.3399 379.746 47.045 380.043 47.624 380.506C48.203 380.969 48.632 381.579 48.861 382.266C49.0181 382.797 48.9693 383.143 48.9059 383.143Z" fill="#263238"/>
<path d="M46.4372 385.778C46.2996 385.85 45.728 384.94 44.5836 384.314C43.8535 383.997 43.1042 383.721 42.3398 383.488C42.7605 383.356 43.2082 383.322 43.6455 383.389C44.0828 383.456 44.4968 383.622 44.8529 383.873C46.1543 384.59 46.5767 385.748 46.4372 385.778Z" fill="#263238"/>
<path d="M53.0436 379.998C52.2101 379.122 51.3094 378.305 50.3491 377.556C49.287 376.943 48.1783 376.407 47.0322 375.952C48.3344 376.009 49.5921 376.421 50.6571 377.138C51.722 377.855 52.5498 378.847 53.0426 379.998H53.0436Z" fill="#263238"/>
<path d="M55.2554 373.216C55.1579 373.336 53.9813 372.508 52.2926 372.05C50.6098 371.571 49.1514 371.668 49.1367 371.515C50.2101 371.159 51.3805 371.175 52.4429 371.56C53.5552 371.78 54.5509 372.366 55.2554 373.216Z" fill="#263238"/>
<path d="M56.9802 366.58C56.0299 366.018 55.0035 365.584 53.9297 365.288C52.8216 365.149 51.6987 365.154 50.5923 365.306C50.5659 365.249 50.8976 365.027 51.522 364.853C52.3443 364.644 53.2065 364.621 54.0395 364.787C54.8725 364.954 55.6531 365.304 56.3188 365.809C56.8183 366.208 57.028 366.538 56.9802 366.58Z" fill="#263238"/>
<path d="M54.2965 364.035C54.2913 363.737 54.3556 363.442 54.4848 363.171C54.7659 362.406 55.204 361.701 55.7735 361.098C56.1494 360.622 56.6795 360.277 57.2817 360.118C57.4852 360.083 57.6949 360.109 57.8823 360.192C58.0696 360.275 58.2255 360.412 58.3285 360.583C58.5077 360.926 58.548 361.321 58.4417 361.691C58.1921 362.438 57.6772 363.08 56.9857 363.504C56.2942 363.929 55.4692 364.11 54.6526 364.017C53.848 363.909 53.0953 363.575 52.4898 363.058C51.8844 362.542 51.4535 361.865 51.2518 361.114C51.202 360.925 51.1956 360.728 51.2329 360.536C51.2703 360.344 51.3506 360.162 51.4684 360.003C51.6047 359.854 51.7871 359.749 51.9894 359.704C52.1917 359.66 52.4037 359.677 52.5951 359.754C53.1475 360.013 53.6185 360.406 53.9609 360.894C54.4793 361.535 54.874 362.26 55.1267 363.034C55.2455 363.308 55.301 363.603 55.2896 363.9C54.8938 362.904 54.3465 361.969 53.6653 361.125C53.3497 360.713 52.933 360.381 52.4517 360.158C52.348 360.114 52.232 360.103 52.1212 360.127C52.0103 360.151 51.9107 360.209 51.8371 360.292C51.7684 360.402 51.7243 360.524 51.7075 360.651C51.6907 360.778 51.7016 360.907 51.7396 361.03C51.9344 361.673 52.3188 362.249 52.847 362.689C53.3752 363.13 54.025 363.416 54.7189 363.514C55.4092 363.59 56.106 363.44 56.6956 363.09C57.2851 362.739 57.7325 362.208 57.9646 361.583C58.0463 361.327 58.0308 361.052 57.9207 360.806C57.866 360.71 57.7811 360.633 57.678 360.586C57.5749 360.538 57.4588 360.523 57.3461 360.542C56.8384 360.678 56.3871 360.961 56.0535 361.35C55.3068 362.14 54.712 363.048 54.2965 364.035Z" fill="#263238"/>
<g opacity="0.3">
<path opacity="0.3" d="M54.0555 351.346L52.915 356.556L70.1746 359.287L71.6145 354.74L54.6701 348.878L54.0555 351.346Z" fill="#595353"/>
</g>
<path d="M131.794 357.292L130.369 375.459C130.369 375.459 149.251 382.942 149.33 386.324L112.301 384.953L113.303 356.56L131.794 357.292Z" fill="#683C95"/>
<g opacity="0.6">
<path opacity="0.6" d="M118.981 373.505C118.621 373.596 118.308 373.81 118.102 374.106C117.897 374.403 117.813 374.761 117.868 375.112C117.949 375.459 118.166 375.762 118.474 375.96C118.783 376.159 119.159 376.237 119.526 376.179C119.908 376.083 120.24 375.855 120.456 375.539C120.672 375.224 120.758 374.843 120.697 374.47C120.573 374.117 120.311 373.824 119.966 373.651C119.62 373.479 119.218 373.44 118.843 373.545" fill="white"/>
</g>
<g opacity="0.6">
<path opacity="0.6" d="M112.301 384.954L112.519 382.096L147.941 384.478C147.941 384.478 149.561 385.222 149.33 386.324L112.301 384.954Z" fill="white"/>
</g>
<path d="M130.977 375.301C130.964 375.474 130.057 375.519 129.144 376.04C128.218 376.54 127.728 377.269 127.565 377.195C127.399 377.155 127.711 376.134 128.827 375.52C129.943 374.906 131.022 375.145 130.977 375.301Z" fill="#263238"/>
<path d="M134.795 376.978C134.831 377.147 134.035 377.411 133.392 378.118C132.726 378.806 132.539 379.589 132.359 379.575C132.188 379.596 132.104 378.581 132.922 377.714C133.741 376.847 134.795 376.815 134.795 376.978Z" fill="#263238"/>
<path d="M136.824 381.493C136.658 381.524 136.441 380.655 136.944 379.725C137.446 378.794 138.309 378.454 138.378 378.6C138.475 378.745 137.905 379.232 137.5 379.996C137.085 380.758 137.003 381.483 136.824 381.493Z" fill="#263238"/>
<path d="M130.82 371.127C130.738 371.282 129.917 371.013 128.893 371.041C127.867 371.05 127.059 371.348 126.971 371.196C126.873 371.067 127.673 370.458 128.881 370.44C130.089 370.423 130.914 370.995 130.82 371.127Z" fill="#263238"/>
<g opacity="0.3">
<path opacity="0.3" d="M131.507 360.89L131.259 364.128L113.065 363.296L113.188 359.553L131.507 360.89Z" fill="#595353"/>
</g>
<path d="M131.036 367.457C130.422 367.592 129.782 367.565 129.183 367.379C128.519 367.241 127.875 367.026 127.266 366.739C126.905 366.569 126.556 366.376 126.223 366.161C126.019 366.043 125.836 365.895 125.679 365.724C125.566 365.597 125.5 365.438 125.492 365.271C125.484 365.104 125.534 364.94 125.634 364.804C125.73 364.687 125.852 364.593 125.993 364.529C126.133 364.466 126.287 364.435 126.442 364.439C126.678 364.445 126.911 364.485 127.134 364.556C127.526 364.662 127.907 364.803 128.272 364.976C128.887 365.268 129.449 365.651 129.939 366.11C130.767 366.9 131.033 367.555 130.971 367.587C130.886 367.641 130.49 367.085 129.641 366.426C129.147 366.045 128.603 365.725 128.024 365.476C127.684 365.332 127.332 365.214 126.972 365.124C126.582 365.011 126.25 364.996 126.143 365.158C126.104 365.22 126.098 365.246 126.175 365.358C126.292 365.482 126.427 365.589 126.575 365.677C126.882 365.885 127.202 366.075 127.533 366.248C128.096 366.54 128.688 366.782 129.299 366.969C129.889 367.092 130.47 367.255 131.036 367.457Z" fill="#263238"/>
<path d="M130.79 367.696C130.46 367.179 130.313 366.574 130.371 365.97C130.366 365.315 130.478 364.663 130.702 364.043C130.837 363.675 131.01 363.321 131.218 362.986C131.328 362.756 131.497 362.557 131.711 362.409C131.925 362.26 132.175 362.166 132.438 362.137C132.603 362.146 132.761 362.2 132.895 362.293C133.028 362.385 133.131 362.512 133.192 362.659C133.279 362.869 133.335 363.09 133.357 363.315C133.404 363.712 133.388 364.113 133.309 364.506C133.18 365.164 132.882 365.781 132.443 366.304C131.682 367.192 130.919 367.371 130.906 367.311C130.85 367.218 131.492 366.913 132.083 366.054C132.423 365.559 132.646 364.999 132.737 364.414C132.79 364.074 132.793 363.73 132.744 363.39C132.702 363.012 132.567 362.704 132.417 362.739C132.234 362.729 131.909 363.001 131.745 363.297C131.55 363.596 131.383 363.911 131.247 364.239C131.017 364.8 130.872 365.39 130.816 365.991C130.723 367.02 130.894 367.673 130.79 367.696Z" fill="#263238"/>
<path d="M93.4543 161.405C93.4543 161.405 87.5746 161.65 83.6987 180.746C79.8229 199.842 50.0488 354.558 50.0488 354.558L71.6145 354.744L112.3 207.65L109.596 359.287L131.507 360.886C131.507 360.886 147.948 193.135 148.103 183.374C148.298 171.205 140.969 158.895 140.969 158.895L93.4543 161.405Z" fill="#263238"/>
<path d="M123.097 159.773C123.234 159.8 120.995 170.71 118.098 184.137C115.201 197.564 112.739 208.432 112.602 208.405C112.464 208.378 114.702 197.471 117.6 184.039C120.499 170.607 122.959 159.747 123.097 159.773Z" fill="#455A64"/>
<path d="M126.459 162.498C126.422 162.451 127.045 162.275 127.712 162.845C127.902 163.012 128.053 163.215 128.154 163.442C128.255 163.669 128.304 163.914 128.297 164.161C128.262 164.469 128.14 164.762 127.946 165.01C127.752 165.258 127.492 165.452 127.193 165.573C126.894 165.693 126.567 165.735 126.245 165.694C125.923 165.653 125.619 165.531 125.363 165.341C125.173 165.173 125.023 164.968 124.924 164.74C124.825 164.512 124.778 164.267 124.786 164.02C124.825 163.165 125.391 162.865 125.401 162.922C125.232 163.263 125.145 163.635 125.145 164.012C125.176 164.394 125.363 164.75 125.666 165.001C125.859 165.126 126.082 165.202 126.315 165.224C126.547 165.246 126.781 165.212 126.996 165.125C127.211 165.039 127.4 164.902 127.546 164.729C127.692 164.555 127.79 164.349 127.831 164.13C127.854 163.747 127.717 163.372 127.451 163.084C126.98 162.559 126.449 162.578 126.459 162.498Z" fill="#455A64"/>
<path d="M125.528 170.058C125.515 170 126.135 170.078 126.473 170.832C126.568 171.051 126.612 171.287 126.602 171.524C126.592 171.76 126.527 171.992 126.413 172.202C126.245 172.453 126.009 172.655 125.73 172.788C125.452 172.92 125.14 172.978 124.83 172.955C124.519 172.932 124.221 172.829 123.967 172.656C123.713 172.484 123.513 172.249 123.388 171.977C123.31 171.752 123.284 171.514 123.312 171.279C123.34 171.044 123.422 170.817 123.551 170.616C124.009 169.92 124.633 169.934 124.611 169.99C124.643 170.063 124.151 170.176 123.868 170.776C123.789 170.938 123.745 171.113 123.738 171.292C123.73 171.471 123.76 171.649 123.825 171.817C123.927 172.002 124.076 172.159 124.259 172.274C124.442 172.389 124.652 172.458 124.871 172.474C125.089 172.49 125.308 172.453 125.507 172.366C125.706 172.28 125.879 172.146 126.01 171.979C126.101 171.823 126.16 171.651 126.181 171.473C126.203 171.296 126.187 171.116 126.136 170.944C125.948 170.314 125.482 170.128 125.528 170.058Z" fill="#455A64"/>
<path d="M104.858 162.69C104.821 163.018 104.735 163.341 104.601 163.646C104.297 164.497 103.916 165.321 103.464 166.109C101.974 168.741 99.8238 170.981 97.205 172.627C94.5862 174.273 91.5807 175.274 88.457 175.542C87.519 175.627 86.5751 175.635 85.6357 175.567C85.289 175.564 84.9446 175.513 84.6133 175.415C84.6133 175.322 86.0864 175.482 88.418 175.201C91.4567 174.848 94.3683 173.829 96.9243 172.222C99.4802 170.615 101.611 168.465 103.149 165.941C104.342 164.01 104.768 162.658 104.858 162.69Z" fill="#455A64"/>
<path d="M146.821 176.261C146.8 176.288 146.572 176.155 146.174 175.889C145.615 175.508 145.092 175.08 144.613 174.611C143.01 173.061 141.759 171.212 140.937 169.18C140.116 167.148 139.743 164.976 139.84 162.8C139.867 162.145 139.954 161.493 140.102 160.853C140.131 160.612 140.205 160.378 140.32 160.162C140.411 160.179 140.203 161.186 140.199 162.809C140.205 167.083 141.87 171.204 144.873 174.376C146.015 175.581 146.877 176.191 146.821 176.261Z" fill="#455A64"/>
<path d="M84.8785 124.609L94.4604 125.114C95.1358 127.682 96.0422 130.189 97.1695 132.608C104.881 119.838 110.861 102.73 112.346 95.8528C112.13 95.1661 111.874 94.4068 111.554 93.5573C111.185 92.5775 111.501 90.7211 111.676 89.691C111.935 88.1594 112.383 86.1002 112.518 85.1465C112.93 82.2415 113.419 81.7846 114.483 82.114C115.928 82.5606 113.89 90.2726 115.074 90.4401C115.711 90.5332 116.489 87.8877 116.715 85.7197C116.94 83.5516 117.968 76.8799 118.72 76.4379C119.821 75.7866 120.781 76.8176 120.503 78.9763C120.222 81.1621 119.867 87.6784 121.068 87.7658C122.251 87.8524 123.245 76.7962 123.245 76.7962C123.245 76.7962 123.058 74.3908 124.449 74.4485C126.957 74.5518 124.997 86.2082 124.783 87.3127C124.632 88.0813 125.936 88.2218 126.051 87.3881C126.169 86.5301 126.775 76.3309 129.329 76.4128C131.289 76.4761 127.81 86.0184 128.91 88.2302C130.011 90.442 130.776 80.7173 132.648 80.8513C133.344 80.9015 133.859 81.0309 132.579 86.5348C131.335 90.9088 129.84 95.2147 128.103 99.4334C125.137 114.694 112.119 163.509 91.7093 154.574C80.2894 149.573 74.9609 124.816 74.9609 124.816L84.8785 124.609Z" fill="#FFBE9D"/>
<path d="M128.102 99.4426C128.122 99.3281 128.154 99.2161 128.2 99.1085L128.542 98.1482C128.86 97.2689 129.308 96.0351 129.877 94.4644C130.446 92.863 131.145 90.9015 131.838 88.5957C132.194 87.4447 132.482 86.1988 132.752 84.8616C132.881 84.1945 133.014 83.5059 133.096 82.8006C133.141 82.4493 133.158 82.0954 133.148 81.7417C133.12 81.3788 133.062 81.0829 132.757 81.0773C132.446 80.9973 132.237 81.242 132.025 81.5509C131.827 81.8784 131.664 82.2238 131.537 82.5819C131.264 83.3151 131.049 84.0949 130.837 84.8933C130.626 85.6916 130.429 86.5133 130.174 87.3498C130.063 87.8082 129.865 88.2431 129.589 88.633C129.518 88.7087 129.425 88.7623 129.321 88.7865C129.258 88.7995 129.192 88.7993 129.129 88.7858C129.066 88.7723 129.006 88.7459 128.955 88.7083C128.842 88.609 128.75 88.4895 128.685 88.3566C128.58 88.1312 128.51 87.8918 128.48 87.6466C128.434 85.7822 128.628 83.9194 129.057 82.0999C129.224 81.1694 129.401 80.2203 129.53 79.2638C129.598 78.7877 129.639 78.3083 129.651 77.828C129.671 77.3869 129.589 76.7905 129.387 76.7067C129.137 76.6137 128.685 76.8863 128.446 77.2809C128.177 77.6939 127.963 78.1371 127.807 78.6003C127.479 79.5734 127.228 80.5688 127.057 81.5779C126.872 82.6015 126.725 83.6464 126.606 84.7044C126.552 85.2348 126.497 85.7673 126.443 86.302L126.368 87.1107C126.379 87.2846 126.349 87.4586 126.281 87.6206C126.214 87.7825 126.111 87.9286 125.978 88.0486C125.814 88.1688 125.615 88.2375 125.408 88.2452C125.202 88.2529 124.997 88.1991 124.824 88.0914C124.73 88.0314 124.65 87.9533 124.59 87.8621C124.53 87.7709 124.49 87.6686 124.474 87.5619C124.458 87.4633 124.458 87.3629 124.474 87.2642L124.511 87.0651C124.597 86.5254 124.684 85.9832 124.771 85.4385C124.932 84.3461 125.072 83.2416 125.183 82.1278C125.294 81.014 125.378 79.889 125.392 78.7604C125.45 77.6466 125.335 76.5308 125.048 75.4496C124.978 75.1743 124.802 74.934 124.556 74.7759C124.438 74.7421 124.311 74.7431 124.194 74.779C124.076 74.8149 123.973 74.8839 123.897 74.9769C123.587 75.5302 123.459 76.1601 123.531 76.784V76.8137V76.8305C123.323 79.0172 123.073 81.1666 122.743 83.2789C122.573 84.334 122.392 85.3799 122.113 86.4137C122.044 86.6724 121.961 86.9301 121.865 87.1888C121.77 87.5034 121.578 87.7832 121.313 87.9918C121.193 88.0469 121.057 88.0621 120.927 88.0349C120.797 88.0078 120.681 87.9399 120.596 87.842C120.481 87.7186 120.391 87.576 120.331 87.4214C120.229 87.1618 120.156 86.8931 120.111 86.6194C119.876 84.5949 119.856 82.5528 120.054 80.5246C120.191 79.5796 120.244 78.6252 120.212 77.6717C120.182 77.264 119.986 76.8837 119.666 76.6118C119.593 76.5667 119.511 76.5368 119.425 76.5241C119.339 76.5114 119.251 76.5163 119.167 76.5383C119.072 76.564 118.98 76.6008 118.895 76.6481C118.832 76.686 118.783 76.7425 118.757 76.8091C118.406 77.6443 118.148 78.5126 117.988 79.3996C117.793 80.2901 117.632 81.175 117.483 82.0497C117.334 82.9243 117.203 83.7878 117.087 84.6383C116.971 85.4888 116.905 86.3365 116.731 87.1674C116.581 87.9881 116.352 88.7938 116.048 89.5746C115.967 89.7708 115.873 89.9617 115.766 90.1459C115.629 90.3209 115.552 90.5488 115.181 90.6577C115.087 90.6743 114.99 90.6643 114.902 90.6289C114.814 90.5935 114.739 90.5343 114.686 90.4586C114.617 90.3524 114.565 90.2366 114.532 90.1152C114.486 89.9114 114.46 89.7039 114.454 89.4955C114.432 87.9137 114.679 86.4556 114.762 85.0515C114.826 84.3791 114.824 83.7025 114.756 83.0304C114.712 82.7317 114.612 82.3791 114.433 82.3111C114.311 82.2508 114.176 82.2179 114.038 82.215C113.9 82.2121 113.763 82.2393 113.638 82.2944C113.234 82.7159 112.981 83.2495 112.916 83.8176C112.779 84.3927 112.716 84.964 112.605 85.5139C112.199 87.7145 111.769 89.6081 111.56 91.15C111.453 91.8278 111.442 92.5166 111.53 93.1971C111.666 93.7609 111.863 94.2588 111.977 94.6505L112.257 95.5494C112.295 95.6501 112.32 95.7547 112.333 95.8611C112.277 95.768 112.232 95.669 112.2 95.5661C112.114 95.3391 112.005 95.0488 111.866 94.6859C111.73 94.2885 111.526 93.8354 111.359 93.2287C111.247 92.5317 111.239 91.8231 111.335 91.1239C111.512 89.5514 111.906 87.6755 112.28 85.4692C112.384 84.9212 112.439 84.3387 112.573 83.746C112.636 83.44 112.722 83.1387 112.83 82.8443C112.932 82.5046 113.146 82.2053 113.44 81.991C113.617 81.9023 113.814 81.8547 114.014 81.8523C114.214 81.8499 114.412 81.8926 114.591 81.9771C115.049 82.2265 115.066 82.6452 115.146 82.9737C115.225 83.6713 115.235 84.3744 115.176 85.0738C115.104 86.4863 114.872 87.9704 114.907 89.4732C114.913 89.6525 114.936 89.831 114.976 90.0064C115.018 90.1869 115.115 90.2557 115.095 90.2213C115.13 90.2278 115.278 90.0669 115.362 89.9208C115.456 89.7549 115.539 89.5833 115.61 89.4071C115.897 88.6518 116.111 87.8732 116.251 87.0809C116.414 86.2769 116.467 85.4376 116.587 84.575C116.706 83.7125 116.826 82.849 116.971 81.9696C117.115 81.0903 117.276 80.2017 117.466 79.2954C117.629 78.3536 117.903 77.4324 118.283 76.5495C118.36 76.402 118.479 76.278 118.625 76.1912C118.754 76.1201 118.892 76.065 119.036 76.0275C119.193 75.9883 119.357 75.9805 119.517 76.0045C119.678 76.0285 119.831 76.0838 119.968 76.167C120.194 76.3403 120.382 76.5557 120.519 76.8001C120.656 77.0445 120.739 77.3128 120.764 77.5888C120.833 78.0936 120.831 78.6051 120.757 79.1093C120.699 79.5866 120.659 80.0724 120.621 80.5609C120.436 82.5432 120.459 84.5381 120.69 86.5161C120.728 86.7513 120.791 86.9823 120.877 87.2056C120.91 87.2933 120.96 87.3749 121.022 87.4466C121.034 87.4637 121.051 87.4768 121.071 87.4838C121.054 87.7025 121.071 87.5303 121.064 87.5768C121.064 87.5368 121.052 87.5443 121.024 87.4977C121.147 87.3435 121.243 87.1709 121.307 86.9869C121.392 86.7543 121.47 86.5133 121.536 86.2648C121.802 85.272 121.981 84.2326 122.147 83.1886C122.471 81.095 122.719 78.9474 122.928 76.7756V76.8212C122.837 76.0542 123.01 75.2798 123.421 74.615C123.577 74.4218 123.794 74.2809 124.039 74.2125C124.285 74.1441 124.546 74.1518 124.787 74.2344C124.993 74.3414 125.173 74.4875 125.317 74.6635C125.461 74.8395 125.566 75.0418 125.625 75.2579C125.938 76.4024 126.065 77.5858 126.002 78.7669C125.983 79.9188 125.904 81.0559 125.788 82.1809C125.672 83.3058 125.533 84.4141 125.369 85.5176C125.28 86.0679 125.192 86.6153 125.103 87.16C125.031 87.5061 125.048 87.5173 125.157 87.6196C125.226 87.6594 125.306 87.6791 125.386 87.6761C125.467 87.6731 125.545 87.6477 125.61 87.6029C125.735 87.5238 125.75 87.361 125.776 87.0585L125.851 86.2509C125.908 85.7118 125.964 85.1758 126.02 84.643C126.143 83.5766 126.292 82.5214 126.485 81.4793C126.663 80.4423 126.924 79.4199 127.265 78.4207C127.437 77.9129 127.675 77.4278 127.974 76.9766C128.136 76.7317 128.349 76.5216 128.6 76.3597C128.744 76.2584 128.912 76.1927 129.089 76.1684C129.266 76.144 129.447 76.1618 129.615 76.2201C129.764 76.3081 129.89 76.428 129.982 76.5703C130.074 76.7125 130.131 76.8733 130.147 77.0399C130.189 77.3014 130.207 77.5662 130.198 77.8308C130.184 78.3315 130.14 78.831 130.067 79.327C129.931 80.304 129.749 81.2513 129.579 82.1846C129.154 83.9544 128.952 85.7661 128.975 87.5815C128.998 87.7769 129.05 87.9681 129.13 88.1491C129.164 88.2161 129.206 88.2786 129.256 88.3352C129.256 88.325 129.248 88.3184 129.233 88.3771C129.224 88.4524 129.233 88.3603 129.223 88.3771C129.186 88.3194 129.213 88.3361 129.229 88.3156C129.447 87.9775 129.608 87.6089 129.707 87.2232C129.96 86.4119 130.163 85.5902 130.383 84.7891C130.602 83.9879 130.824 83.2007 131.113 82.4423C131.252 82.0584 131.43 81.6884 131.645 81.3378C131.762 81.1499 131.913 80.983 132.09 80.8447C132.192 80.7667 132.311 80.7106 132.437 80.68C132.562 80.6593 132.689 80.6593 132.813 80.68C132.946 80.6929 133.074 80.7397 133.182 80.8155C133.29 80.8912 133.375 80.9932 133.429 81.1108C133.509 81.3074 133.551 81.516 133.554 81.7268C133.563 82.1025 133.541 82.4783 133.49 82.8508C133.398 83.5757 133.257 84.267 133.119 84.9389C132.835 86.276 132.527 87.5443 132.153 88.6925C131.424 91.0011 130.69 92.9533 130.088 94.5463C129.486 96.1393 128.988 97.3657 128.645 98.1948C128.481 98.5847 128.353 98.8945 128.247 99.1355C128.211 99.2425 128.162 99.3455 128.102 99.4426Z" fill="#EB996E"/>
<path d="M74.8516 125.666C76.7051 131.9 80.3254 141.542 84.2169 151.703C84.3418 152.03 84.565 152.314 84.8587 152.52C85.1523 152.725 85.5032 152.844 85.8671 152.86C86.2311 152.876 86.592 152.789 86.9043 152.61C87.2167 152.431 87.4666 152.168 87.6226 151.854L97.1674 132.607C97.1674 132.607 94.869 116.795 95.0641 117.354C95.2593 117.912 75.3715 119.401 75.3715 119.401L74.8516 125.666Z" fill="#683C95"/>
<path d="M96.3467 122.564C96.3682 122.641 95.1614 122.975 93.2718 123.663C88.3402 125.446 83.7929 128.077 79.8549 131.423C78.3428 132.703 77.4736 133.57 77.416 133.517C77.5581 133.267 77.7383 133.039 77.9506 132.84C78.3165 132.422 78.8833 131.849 79.6149 131.172C83.4679 127.641 88.0915 124.967 93.1547 123.34C94.1234 123.035 94.9175 122.82 95.4755 122.704C95.7571 122.617 96.0506 122.569 96.3467 122.564Z" fill="#FAFAFA"/>
<path d="M100.131 127.363C99.5136 126.768 98.9786 126.1 98.5386 125.376C96.2302 121.985 94.5937 118.219 93.7106 114.265C93.4841 113.457 93.3668 112.624 93.3613 111.787C93.6517 112.57 93.8851 113.371 94.0598 114.185C95.1221 118.046 96.7303 121.75 98.8401 125.196C99.3216 125.889 99.7528 126.614 100.131 127.363Z" fill="#263238"/>
<path d="M106.497 42.1146C104.842 44.7162 103.816 47.637 103.494 50.6644C103.172 53.6917 103.561 56.7496 104.634 59.6154C105.609 62.1715 107.17 64.6969 106.877 67.4093C106.585 70.1887 104.376 72.8127 105.157 75.5046C105.619 77.0939 107.049 78.2729 107.596 79.8361C108.24 81.6711 107.569 83.6567 107.263 85.5708C106.482 90.4447 108.116 95.341 108.52 100.26C108.924 105.178 107.535 110.929 102.938 113.073C101.541 113.724 99.7188 113.91 98.553 112.918C97.0779 111.657 97.4886 109.391 97.8925 107.529C101.932 88.901 89.4549 70.7563 92.3045 51.9248C92.7611 48.9072 94.5288 43.7857 96.8067 41.6735C99.0846 39.5613 105.386 39.8181 107.538 42.0457" fill="#263238"/>
<path d="M87.2801 96.0992C87.2401 96.0667 87.8655 95.4283 88.7435 94.1089C89.9794 92.2451 90.8433 90.1794 91.2916 88.016C91.5902 86.5253 91.6911 85.0047 91.5921 83.49C91.4258 81.7324 91.3588 79.9675 91.3911 78.2029C91.4488 77.2336 91.637 76.2754 91.9511 75.3519C92.3042 74.4019 92.7528 73.4867 93.2906 72.619C94.3822 70.8576 95.7655 69.2189 97.0308 67.4668C98.3291 65.8243 99.235 63.9308 99.6853 61.9192C99.9028 60.0111 99.7877 58.0819 99.3449 56.2096C98.9705 54.471 98.826 52.6945 98.9146 50.9216C99.0174 49.3759 99.3316 47.8497 99.8492 46.3817C100.598 44.2577 101.769 42.2913 103.298 40.5903C103.708 40.1268 104.151 39.6914 104.626 39.2876C104.782 39.1381 104.954 39.0041 105.139 38.8875C105.177 38.9256 104.481 39.4951 103.45 40.7084C102.004 42.4292 100.9 44.3879 100.193 46.4878C99.7089 47.9322 99.4214 49.4298 99.3371 50.9439C99.2691 52.686 99.4274 54.4293 99.8083 56.1343C100.275 58.0548 100.4 60.0364 100.178 61.9964C99.7233 64.0794 98.7923 66.041 97.4513 67.7413C96.1694 69.5158 94.7929 71.1432 93.7218 72.8591C93.1984 73.6969 92.7603 74.5805 92.4135 75.498C92.1077 76.3827 91.9218 77.3011 91.8604 78.2308C91.8174 79.9791 91.8692 81.7283 92.0155 83.4714C92.099 85.0174 91.9747 86.5671 91.6458 88.083C91.1618 90.2758 90.234 92.3574 88.9142 94.2112C88.557 94.7121 88.1683 95.1918 87.7504 95.6479C87.6106 95.8137 87.453 95.9649 87.2801 96.0992Z" fill="#455A64"/>
<path d="M78.0283 97.4923C78.1087 97.276 78.2099 97.0673 78.3307 96.8689L79.279 95.1214C80.0955 93.6037 81.3179 91.4217 82.5198 88.6014C83.9873 85.328 84.7955 81.8203 84.9021 78.2617C84.9089 77.2396 84.8293 76.2186 84.6641 75.2087C84.4963 74.1749 84.2446 73.1197 84.0787 72.0189C83.8731 70.8842 83.8983 69.7223 84.1529 68.5965C84.4946 67.4373 85.1847 66.399 86.1381 65.6096C87.978 64.0148 90.1955 62.9763 91.3418 61.1098C92.3399 59.254 92.9285 57.2228 93.0714 55.1415C93.2768 53.2225 93.728 51.3347 94.4148 49.5204C95.9572 45.6494 98.7174 42.3283 102.317 40.0125C102.888 39.643 103.484 39.3101 104.102 39.016C104.312 38.9034 104.532 38.8099 104.76 38.7368C104.786 38.7833 103.882 39.19 102.429 40.1716C100.38 41.5656 98.6059 43.2949 97.1892 45.2792C96.2077 46.6402 95.4096 48.1135 94.8138 49.6646C94.156 51.4555 93.7282 53.3158 93.5397 55.2048C93.4028 57.3516 92.8002 59.4478 91.77 61.361C90.5281 63.3709 88.2317 64.4391 86.4884 65.9679C85.6057 66.6944 84.9654 67.6516 84.6465 68.7212C84.4071 69.7859 84.3833 70.8843 84.5763 71.9575C84.7314 73.0322 84.9782 74.0856 85.146 75.1417C85.3098 76.1763 85.3854 77.2219 85.3723 78.2682C85.2448 81.879 84.3899 85.4327 82.8544 88.7354C81.8508 90.9551 80.7157 93.1186 79.4546 95.2154L78.4224 96.9191C78.3105 97.1217 78.1786 97.3137 78.0283 97.4923Z" fill="#455A64"/>
<path d="M400.804 360.421C400.848 360.285 400.905 360.153 400.975 360.027C401.112 359.748 401.294 359.376 401.528 358.903C402.201 357.449 402.744 355.944 403.151 354.403C404.225 350.402 404.601 344.288 403.013 337.025C402.153 333.069 401.024 329.17 399.635 325.353C398.203 321.21 396.543 316.816 395.186 312.064C393.652 307.105 392.912 301.954 392.989 296.785C393.195 291.38 394.873 285.986 396.718 280.616C398.562 275.246 400.463 269.979 401.034 264.692C401.665 259.606 400.593 254.46 397.972 249.99C395.533 245.699 392.458 242.029 390.159 238.227C388.011 234.702 386.428 230.89 385.463 226.918C384.078 221.163 383.978 215.194 385.17 209.4C385.593 207.282 386.235 205.21 387.087 203.213C387.061 203.353 387.023 203.49 386.973 203.624C386.875 203.917 386.748 204.31 386.583 204.81C386.1 206.332 385.702 207.878 385.39 209.441C384.296 215.206 384.459 221.125 385.868 226.828C386.85 230.752 388.438 234.515 390.579 237.994C392.873 241.75 395.959 245.405 398.449 249.747C401.136 254.305 402.24 259.558 401.605 264.751C401.032 270.13 399.113 275.422 397.276 280.793C395.439 286.165 393.773 291.494 393.569 296.811C393.487 301.926 394.211 307.025 395.715 311.935C397.049 316.663 398.691 321.06 400.105 325.214C401.483 329.054 402.593 332.977 403.429 336.956C404.976 344.272 404.535 350.449 403.383 354.463C402.949 356.008 402.368 357.513 401.644 358.956L401.026 360.054C400.963 360.182 400.889 360.305 400.804 360.421Z" fill="#263238"/>
<path d="M393.282 241.973C393.282 241.973 388.613 227.736 396.989 219.395C397.054 219.329 397.138 219.28 397.23 219.256C397.322 219.232 397.419 219.232 397.511 219.257C397.603 219.283 397.686 219.332 397.751 219.399C397.815 219.466 397.859 219.549 397.877 219.639C398.323 221.991 398.88 229.153 393.282 241.973Z" fill="#683C95"/>
<path d="M396.079 224.14C396.067 225.023 395.962 225.903 395.764 226.767C395.457 228.577 395.097 230.701 394.699 233.048C394.301 235.394 393.955 237.514 393.654 239.328C393.574 240.207 393.409 241.078 393.16 241.927C393.075 241.045 393.104 240.156 393.244 239.28C393.398 237.654 393.698 235.415 394.122 232.958C394.545 230.502 394.992 228.289 395.358 226.695C395.498 225.82 395.74 224.963 396.079 224.14Z" fill="#263238"/>
<path d="M398.766 275.558C398.766 275.558 401.621 260.889 413.111 257.254C413.202 257.225 413.299 257.219 413.392 257.239C413.486 257.259 413.572 257.303 413.64 257.366C413.709 257.429 413.758 257.51 413.782 257.598C413.806 257.687 413.804 257.779 413.776 257.867C413.019 260.145 410 266.725 398.766 275.558Z" fill="#683C95"/>
<path d="M409.983 261.043C409.539 261.819 409.014 262.55 408.416 263.225L404.395 268.301L400.396 273.387C399.893 274.127 399.321 274.823 398.685 275.463C399.041 274.645 399.499 273.871 400.05 273.158C400.985 271.789 402.348 269.944 403.927 267.961C405.507 265.978 406.986 264.222 408.09 262.976C408.644 262.267 409.278 261.619 409.983 261.043Z" fill="#263238"/>
<path d="M395.66 312.36C395.66 312.36 393.925 297.531 403.814 290.871C403.891 290.817 403.983 290.785 404.078 290.778C404.174 290.771 404.269 290.789 404.354 290.831C404.439 290.872 404.511 290.936 404.561 291.014C404.61 291.092 404.636 291.181 404.636 291.273C404.606 293.662 403.722 300.794 395.66 312.36Z" fill="#683C95"/>
<path d="M401.974 295.363C401.785 296.228 401.506 297.073 401.14 297.885L398.837 303.857L396.556 309.831C396.301 310.68 395.964 311.504 395.55 312.293C395.645 311.411 395.85 310.544 396.161 309.709C396.639 308.141 397.382 305.998 398.288 303.661C399.194 301.325 400.077 299.236 400.754 297.738C401.067 296.905 401.476 296.109 401.974 295.363Z" fill="#263238"/>
<path d="M404.316 349.376C404.316 349.376 403.14 334.498 413.273 328.18C413.352 328.129 413.445 328.1 413.54 328.096C413.636 328.092 413.73 328.114 413.814 328.158C413.897 328.202 413.966 328.268 414.013 328.348C414.06 328.427 414.083 328.518 414.079 328.609C413.958 330.996 412.806 338.094 404.316 349.376Z" fill="#683C95"/>
<path d="M411.263 332.606C411.043 333.465 410.732 334.299 410.335 335.097L407.811 340.987L405.306 346.88C405.019 347.719 404.652 348.532 404.209 349.306C404.336 348.428 404.574 347.569 404.917 346.745C405.453 345.193 406.275 343.077 407.269 340.775C408.263 338.473 409.22 336.414 409.956 334.94C410.299 334.118 410.738 333.336 411.263 332.606Z" fill="#263238"/>
<path d="M386.572 229.461C386.572 229.461 372.706 222.554 372.435 211.011C372.431 210.919 372.454 210.829 372.501 210.749C372.548 210.67 372.618 210.605 372.701 210.56C372.785 210.516 372.88 210.495 372.976 210.499C373.071 210.504 373.164 210.533 373.243 210.584C375.304 211.944 381.014 216.626 386.572 229.461Z" fill="#683C95"/>
<path d="M375.313 214.976C375.961 215.608 376.54 216.301 377.041 217.044L380.949 222.2L384.872 227.342C385.468 228.017 385.996 228.743 386.451 229.512C385.738 228.945 385.098 228.298 384.547 227.586C383.449 226.332 382 224.547 380.475 222.526C378.95 220.505 377.625 218.641 376.7 217.268C376.15 216.556 375.685 215.787 375.313 214.976Z" fill="#263238"/>
<path d="M401.46 260.043C401.46 260.043 387.181 253.953 386.174 242.446C386.165 242.355 386.182 242.263 386.224 242.181C386.266 242.099 386.331 242.029 386.412 241.98C386.493 241.931 386.587 241.905 386.683 241.904C386.778 241.902 386.873 241.927 386.955 241.974C389.098 243.21 395.096 247.553 401.46 260.043Z" fill="#683C95"/>
<path d="M389.301 246.237C389.987 246.83 390.608 247.488 391.154 248.201L395.384 253.121L399.627 258.026C400.265 258.665 400.839 259.36 401.342 260.101C400.593 259.576 399.914 258.968 399.318 258.288C398.141 257.101 396.586 255.404 394.928 253.474C393.269 251.544 391.835 249.76 390.825 248.449C390.232 247.768 389.721 247.026 389.301 246.237Z" fill="#263238"/>
<path d="M393.245 294.156C393.245 294.156 383.44 282.525 388.039 271.849C388.074 271.764 388.133 271.69 388.21 271.636C388.286 271.581 388.377 271.547 388.472 271.539C388.567 271.53 388.663 271.547 388.749 271.588C388.835 271.628 388.907 271.69 388.958 271.767C390.276 273.8 393.542 280.271 393.245 294.156Z" fill="#683C95"/>
<path d="M389.012 276.582C389.34 277.408 389.579 278.264 389.726 279.137C390.135 280.928 390.614 283.031 391.142 285.355C391.671 287.678 392.164 289.775 392.577 291.565C392.839 292.411 393.019 293.278 393.114 294.156C392.698 293.364 392.384 292.527 392.177 291.663C391.696 290.095 391.119 287.907 390.571 285.473C390.022 283.039 389.595 280.82 389.32 279.211C389.114 278.349 389.011 277.467 389.012 276.582Z" fill="#263238"/>
<path d="M402.956 334.299C402.956 334.299 388.786 327.98 387.982 316.458C387.975 316.367 387.994 316.276 388.037 316.195C388.08 316.114 388.147 316.045 388.228 315.998C388.31 315.95 388.404 315.925 388.499 315.925C388.595 315.925 388.689 315.951 388.77 315.999C390.891 317.27 396.812 321.708 402.956 334.299Z" fill="#683C95"/>
<path d="M391.042 320.3C391.718 320.904 392.328 321.572 392.863 322.294L397.006 327.28L401.161 332.253C401.787 332.902 402.349 333.606 402.839 334.354C402.1 333.818 401.431 333.198 400.847 332.51C399.692 331.3 398.163 329.581 396.546 327.626C394.93 325.671 393.522 323.863 392.533 322.531C391.95 321.842 391.45 321.094 391.042 320.3Z" fill="#263238"/>
<path d="M431.182 275.638C431.204 275.747 431.21 275.857 431.2 275.967C431.193 276.227 431.185 276.54 431.175 276.921C431.133 277.817 431.078 279.027 431.007 280.538C430.824 283.719 430.569 288.154 430.265 293.457V293.471V293.488C429.253 298.885 426.371 304.871 422.499 310.681C419.658 314.961 416.68 318.852 414.109 322.47C411.775 325.632 409.674 328.945 407.821 332.384C406.607 334.716 405.622 337.152 404.88 339.658C404.631 340.549 404.444 341.24 404.337 341.72C404.293 341.965 404.223 342.206 404.129 342.438C404.134 342.188 404.164 341.938 404.221 341.694C404.291 341.209 404.443 340.504 404.66 339.599C405.322 337.051 406.257 334.574 407.45 332.207C409.259 328.723 411.336 325.371 413.662 322.178C416.212 318.534 419.174 314.641 421.999 310.38C425.852 304.598 428.719 298.705 429.769 293.392V293.423C430.159 288.124 430.486 283.694 430.719 280.516C430.847 279.009 430.95 277.801 431.025 276.907C431.065 276.528 431.098 276.216 431.123 275.958C431.125 275.849 431.145 275.741 431.182 275.638Z" fill="#263238"/>
<path d="M422.744 309.571C422.744 309.571 428.746 295.792 421.196 286.765C421.137 286.693 421.059 286.638 420.969 286.606C420.88 286.573 420.782 286.566 420.689 286.583C420.595 286.6 420.508 286.642 420.437 286.704C420.367 286.766 420.316 286.845 420.289 286.933C419.62 289.236 418.384 296.32 422.744 309.571Z" fill="#683C95"/>
<path d="M421.652 291.569C421.911 292.418 422.07 293.292 422.127 294.175C422.339 295.793 422.577 298.035 422.763 300.519C422.948 303.002 423.039 305.257 423.038 306.891C423.094 307.775 423.037 308.663 422.87 309.534C422.703 308.666 422.621 307.786 422.624 306.903C422.497 305.076 422.346 302.93 422.179 300.558C422.013 298.186 421.849 296.039 421.715 294.211C421.6 293.335 421.579 292.45 421.652 291.569Z" fill="#263238"/>
<g opacity="0.3">
<path opacity="0.3" d="M422.744 309.571C422.744 309.571 428.746 295.792 421.196 286.765C421.137 286.693 421.059 286.638 420.969 286.606C420.88 286.573 420.782 286.566 420.689 286.583C420.595 286.6 420.508 286.642 420.437 286.704C420.367 286.766 420.316 286.845 420.289 286.933C419.62 289.236 418.384 296.32 422.744 309.571Z" fill="#595353"/>
</g>
<path d="M404.156 342.774C404.156 342.774 408.967 328.576 400.674 320.163C400.61 320.095 400.527 320.046 400.435 320.021C400.343 319.995 400.245 319.995 400.153 320.02C400.061 320.044 399.978 320.093 399.913 320.16C399.847 320.227 399.803 320.31 399.785 320.399C399.314 322.748 398.684 329.905 404.156 342.774Z" fill="#683C95"/>
<path d="M401.537 324.917C401.868 325.743 402.101 326.603 402.233 327.478C402.582 329.075 403.013 331.293 403.403 333.752C403.794 336.21 404.08 338.454 404.219 340.079C404.35 340.956 404.369 341.845 404.276 342.727C404.036 341.874 403.879 341.001 403.807 340.121C403.524 338.308 403.192 336.181 402.825 333.831C402.458 331.48 402.111 329.353 401.822 327.541C401.634 326.678 401.539 325.798 401.537 324.917Z" fill="#263238"/>
<g opacity="0.3">
<path opacity="0.3" d="M404.156 342.774C404.156 342.774 408.967 328.576 400.674 320.163C400.61 320.095 400.527 320.046 400.435 320.021C400.343 319.995 400.245 319.995 400.153 320.02C400.061 320.044 399.978 320.093 399.913 320.16C399.847 320.227 399.803 320.31 399.785 320.399C399.314 322.748 398.684 329.905 404.156 342.774Z" fill="#595353"/>
</g>
<path d="M430.39 292.731C430.39 292.731 443.205 284.171 441.911 272.695C441.902 272.604 441.867 272.517 441.81 272.444C441.753 272.371 441.675 272.315 441.586 272.281C441.497 272.248 441.4 272.238 441.306 272.254C441.212 272.27 441.124 272.311 441.053 272.371C439.189 273.973 434.16 279.319 430.39 292.731Z" fill="#683C95"/>
<g opacity="0.3">
<path opacity="0.3" d="M430.39 292.731C430.39 292.731 443.205 284.171 441.911 272.695C441.902 272.604 441.867 272.517 441.81 272.444C441.753 272.371 441.675 272.315 441.586 272.281C441.497 272.248 441.4 272.238 441.306 272.254C441.212 272.27 441.124 272.311 441.053 272.371C439.189 273.973 434.16 279.319 430.39 292.731Z" fill="#595353"/>
</g>
<path d="M439.59 276.982C439.332 277.832 438.975 278.651 438.526 279.425C437.794 280.899 436.734 282.914 435.494 285.101C434.254 287.289 433.061 289.241 432.141 290.619C431.691 291.393 431.144 292.111 430.513 292.759C430.859 291.942 431.283 291.157 431.781 290.414L434.974 284.831C436.162 282.741 437.236 280.848 438.152 279.237C438.551 278.441 439.033 277.685 439.59 276.982Z" fill="#263238"/>
<path d="M409.323 328.699C409.323 328.699 424.779 326.401 428.919 315.55C428.953 315.465 428.962 315.372 428.944 315.283C428.926 315.193 428.882 315.11 428.818 315.042C428.753 314.975 428.671 314.926 428.579 314.9C428.487 314.875 428.389 314.875 428.297 314.899C425.888 315.555 418.904 318.243 409.323 328.699Z" fill="#683C95"/>
<g opacity="0.3">
<path opacity="0.3" d="M409.323 328.699C409.323 328.699 424.779 326.401 428.919 315.55C428.953 315.465 428.962 315.372 428.944 315.283C428.926 315.193 428.882 315.11 428.818 315.042C428.753 314.975 428.671 314.926 428.579 314.9C428.487 314.875 428.389 314.875 428.297 314.899C425.888 315.555 418.904 318.243 409.323 328.699Z" fill="#595353"/>
</g>
<path d="M424.858 318.425C424.234 319.079 423.535 319.665 422.774 320.171C421.437 321.188 419.555 322.55 417.43 323.996C415.305 325.442 413.333 326.695 411.87 327.542C411.108 328.048 410.285 328.465 409.418 328.783C410.108 328.195 410.852 327.669 411.643 327.211L417.089 323.541L422.525 319.855C423.25 319.304 424.032 318.825 424.858 318.425Z" fill="#263238"/>
<path d="M394.579 355.829L390.07 384.772H418.166L414.524 355.829H394.579Z" fill="#455A64"/>
<path d="M415.649 364.798C415.649 364.951 410.576 365.077 404.318 365.077C398.061 365.077 392.988 364.952 392.988 364.798C392.988 364.643 398.061 364.519 404.318 364.519C410.576 364.519 415.649 364.643 415.649 364.798Z" fill="#263238"/>
<path d="M416.205 367.101C416.205 367.254 410.966 367.38 404.505 367.38C398.043 367.38 392.803 367.255 392.803 367.101C392.803 366.946 398.041 366.822 404.505 366.822C410.969 366.822 416.205 366.946 416.205 367.101Z" fill="#263238"/>
<path d="M306.948 75.0933C306.948 75.0933 306.688 75.0933 306.185 75.0831C305.441 75.0441 304.696 75.0481 303.953 75.0952C301.092 75.2414 298.28 75.8598 295.64 76.9227C291.453 78.5979 287.808 81.3067 285.082 84.7705C283.4 86.9318 282.151 89.3701 281.396 91.9633C279.687 98.1521 280.622 104.735 283.995 110.267C284.912 111.794 286.026 113.205 287.312 114.467C288.609 115.806 290.125 116.937 291.799 117.816C293.516 118.74 295.46 119.207 297.43 119.169C299.459 119.146 301.405 118.397 302.884 117.071C304.324 115.628 305.106 113.699 305.057 111.707C305.037 109.656 304.345 107.663 303.079 106.005C300.542 102.611 296.45 100.329 292.093 99.0956C287.571 97.8864 282.796 97.8222 278.24 98.9095C275.913 99.4827 273.671 100.333 271.567 101.44C269.442 102.585 267.51 104.03 265.838 105.726C265.438 106.17 264.982 106.57 264.626 107.05L263.525 108.469C261.475 111.478 260.138 114.878 259.608 118.43C258.906 123.167 259.587 127.997 261.578 132.388C263.479 136.668 266.784 140.244 270.997 142.581C273.038 143.7 275.319 144.361 277.668 144.514C279.969 144.634 282.257 144.11 284.251 143.007C286.222 141.966 287.785 140.342 288.704 138.379C289.53 136.434 289.564 134.264 288.802 132.295C288.036 130.377 286.774 128.675 285.132 127.347C283.548 126.035 281.717 125.021 279.738 124.357C275.882 123.2 271.757 123.132 267.861 124.16C264.22 125.106 260.876 126.884 258.119 129.341C255.606 131.638 253.693 134.466 252.534 137.597C250.508 143.017 250.598 148.953 252.79 154.315C254.507 158.324 257.275 161.845 260.827 164.542C263.057 166.258 265.547 167.641 268.212 168.645C269.129 168.978 269.837 169.215 270.322 169.345C270.803 169.488 271.045 169.573 271.045 169.573C271.045 169.573 270.794 169.52 270.307 169.392C269.82 169.264 269.102 169.056 268.175 168.736C265.48 167.766 262.959 166.401 260.705 164.69C257.097 161.994 254.28 158.455 252.526 154.416C250.278 148.994 250.16 142.979 252.196 137.481C253.363 134.293 255.299 131.411 257.849 129.069C260.648 126.56 264.047 124.741 267.751 123.772C271.728 122.712 275.942 122.774 279.882 123.952C281.919 124.63 283.803 125.67 285.434 127.017C287.136 128.391 288.445 130.155 289.239 132.143C290.044 134.217 290.01 136.503 289.141 138.553C288.184 140.61 286.551 142.313 284.489 143.406C282.414 144.556 280.033 145.104 277.637 144.981C275.213 144.826 272.858 144.146 270.751 142.994C266.44 140.609 263.058 136.955 261.111 132.58C259.08 128.107 258.384 123.185 259.101 118.359C259.643 114.734 261.008 111.266 263.1 108.197L264.227 106.746C264.592 106.257 265.057 105.846 265.466 105.393C267.175 103.662 269.148 102.188 271.32 101.02C273.464 99.893 275.748 99.0282 278.119 98.4461C282.761 97.3403 287.626 97.4089 292.232 98.6452C296.676 99.9107 300.842 102.227 303.466 105.745C304.781 107.479 305.498 109.56 305.515 111.7C305.559 113.807 304.726 115.845 303.197 117.366C301.637 118.765 299.582 119.554 297.441 119.576C295.395 119.612 293.376 119.124 291.595 118.162C289.882 117.26 288.334 116.101 287.009 114.728C285.704 113.442 284.574 112.003 283.645 110.448C281.958 107.665 280.863 104.592 280.422 101.405C279.98 98.2179 280.202 94.9793 281.073 91.874C281.849 89.2487 283.127 86.783 284.843 84.6012C287.612 81.1155 291.31 78.4014 295.552 76.7413C298.218 75.689 301.059 75.0961 303.942 74.9901C304.69 74.9535 305.44 74.9657 306.186 75.0263C306.689 75.0645 306.948 75.0933 306.948 75.0933Z" fill="#263238"/>
<path d="M339.529 168.199H202.746V268.826H339.529V168.199Z" fill="#683C95"/>
<path d="M202.746 168.197L228.013 190.673H362.474L339.529 168.197H202.746Z" fill="#683C95"/>
<path d="M202.746 168.197L339.529 167.96H339.634L339.708 168.033L362.421 190.271L362.657 190.502L363.077 190.914H362.474L228.01 190.821H227.95L227.906 190.782L202.746 168.199L228.111 190.569L228.006 190.53L362.47 190.437L362.289 190.848L362.053 190.617L339.351 168.366L339.529 168.437L202.746 168.197Z" fill="#263238"/>
<path d="M243.83 214.599C243.097 214.6 242.392 214.875 241.869 215.365C241.346 215.856 241.045 216.523 241.032 217.222C241.018 217.922 241.293 218.599 241.798 219.107C242.302 219.615 242.995 219.915 243.728 219.94C244.462 219.966 245.176 219.717 245.719 219.245C246.261 218.774 246.588 218.119 246.629 217.42C246.67 216.721 246.421 216.035 245.938 215.509C245.454 214.983 244.773 214.659 244.041 214.607" fill="#263238"/>
<path d="M276.127 214.599C275.393 214.6 274.689 214.875 274.165 215.366C273.642 215.856 273.341 216.523 273.328 217.223C273.314 217.923 273.589 218.6 274.094 219.109C274.598 219.617 275.292 219.916 276.025 219.942C276.759 219.968 277.474 219.719 278.016 219.247C278.559 218.776 278.885 218.12 278.926 217.421C278.967 216.722 278.719 216.036 278.235 215.509C277.751 214.983 277.07 214.659 276.338 214.607" fill="#263238"/>
<path d="M276.334 238.687C275.778 236.628 274.863 234.672 273.627 232.902C272.255 231.01 270.496 229.402 268.456 228.174C265.993 226.615 263.121 225.748 260.166 225.671C257.211 225.593 254.293 226.309 251.744 227.737C249.638 228.857 247.79 230.371 246.312 232.189C244.977 233.891 243.951 235.795 243.277 237.822C243.281 237.672 243.308 237.524 243.356 237.382C243.447 236.963 243.567 236.551 243.714 236.147C244.249 234.65 245.029 233.244 246.026 231.981C247.498 230.09 249.367 228.512 251.514 227.348C254.129 225.857 257.135 225.107 260.18 225.187C263.226 225.266 266.184 226.172 268.709 227.798C270.785 229.072 272.561 230.746 273.922 232.711C274.845 234.024 275.543 235.469 275.991 236.991C276.115 237.402 276.21 237.821 276.278 238.243C276.319 238.388 276.338 238.538 276.334 238.687Z" fill="#263238"/>
<path opacity="0.5" d="M203.057 169.306L227.25 198.56H339.537V190.675H228.01L203.057 169.306Z" fill="#595353"/>
<path d="M312.557 268.598C312.417 268.598 312.303 251.096 312.303 229.509C312.303 207.922 312.417 190.417 312.557 190.417C312.698 190.417 312.811 207.916 312.811 229.509C312.811 251.102 312.698 268.598 312.557 268.598Z" fill="#263238"/>
<path d="M334.034 245.784H321.977V258.784H334.034V245.784Z" fill="#F5F5F5"/>
<path d="M202.746 168.197L174.664 190.673H202.746V168.197Z" fill="#683C95"/>
<g opacity="0.4">
<path opacity="0.4" d="M202.746 168.197L174.664 190.673H202.746V168.197Z" fill="#595353"/>
</g>
<path d="M343.567 268.826H186.298V384.523H343.567V268.826Z" fill="#683C95"/>
<path opacity="0.3" d="M343.567 268.826H186.298V384.523H343.567V268.826Z" fill="#595353"/>
<path d="M304.164 383.701C304.023 383.701 303.91 357.912 303.91 326.103C303.91 294.294 304.023 268.505 304.164 268.505C304.304 268.505 304.417 294.288 304.417 326.103C304.417 357.918 304.304 383.701 304.164 383.701Z" fill="#263238"/>
<path d="M330.231 358.188H318.174V371.188H330.231V358.188Z" fill="#F5F5F5"/>
<path d="M252.139 269.124H234.275V293.811H252.139V269.124Z" fill="#263238"/>
<path d="M252.139 359.491H234.275V384.178H252.139V359.491Z" fill="#263238"/>
<path d="M342.2 268.826C342.067 268.845 341.932 268.853 341.798 268.85L340.617 268.875L336.074 268.92L319.369 268.996L264.253 269.063L209.134 268.994L192.429 268.917L187.887 268.872L186.707 268.848C186.572 268.851 186.437 268.843 186.304 268.823C186.437 268.804 186.572 268.796 186.707 268.798L187.887 268.774L192.429 268.728L209.134 268.651L264.253 268.58L319.366 268.651L336.071 268.728L340.614 268.774L341.795 268.798C341.931 268.796 342.066 268.806 342.2 268.826Z" fill="#263238"/>
<path d="M72.6696 68.5109L55.5447 64.4977L55.6715 64.4782C51.246 67.1588 46.1305 68.6219 40.8889 68.7063C37.7856 68.7218 34.6975 68.2917 31.7284 67.4306C28.4933 66.4485 25.4697 64.9196 22.802 62.9168C16.8166 58.4522 12.9324 51.9053 12.0016 44.7125C11.4795 40.7855 11.8678 36.797 13.1391 33.0288C14.4105 29.2607 16.5339 25.8048 19.3593 22.9053C20.8477 21.3609 22.5112 19.9788 24.319 18.7841C25.2448 18.2388 26.1579 17.6722 27.112 17.193L28.5685 16.5239L29.2944 16.1917L30.0485 15.9284C33.9674 14.4851 38.1693 13.8748 42.361 14.14C47.9752 14.4843 53.357 16.4054 57.8287 19.6614C62.3005 22.9174 65.6621 27.3626 67.4904 32.4373C68.5068 35.2776 69.0406 38.2546 69.0717 41.2557C69.0979 46.2419 67.68 51.1383 64.9744 55.4049V55.2569L72.6725 68.5072L64.7071 55.4021L64.6632 55.3286L64.7091 55.2541C67.344 51.0213 68.711 46.18 68.661 41.2575C68.6129 38.3025 68.0722 35.3736 67.0592 32.5806C65.2439 27.6032 61.9283 23.2478 57.5281 20.0606C53.1279 16.8734 47.8391 14.9963 42.3249 14.6648C38.2142 14.412 34.0951 15.0153 30.2533 16.4327L29.5139 16.6914L28.8027 17.018L27.3754 17.674C26.4408 18.1449 25.5463 18.6976 24.639 19.2354C22.8674 20.4061 21.2371 21.7601 19.7778 23.2728C17.1504 25.9952 15.1419 29.2066 13.8789 32.7052C12.6158 36.2038 12.1254 39.9138 12.4385 43.6019C12.7516 47.2901 13.8614 50.8765 15.6982 54.1357C17.5349 57.3949 20.0589 60.2563 23.1113 62.5399C25.7276 64.5163 28.6945 66.0291 31.8708 67.0063C34.79 67.8644 37.8274 68.3006 40.882 68.3006C46.0545 68.2418 51.1106 66.8291 55.4988 64.2167L55.5583 64.1813L55.6247 64.1981L72.6696 68.5109Z" fill="#263238"/>
<path d="M38.0798 29.2736L38.9851 42.9175C39.021 43.4567 39.2623 43.9647 39.6635 44.346C40.0647 44.7273 40.5982 44.9556 41.1636 44.9879C41.7578 45.0216 42.3429 44.8363 42.7979 44.4702C43.2529 44.1041 43.5431 43.5852 43.6083 43.0208L45.1965 29.308C45.2249 29.0633 45.1984 28.8156 45.1188 28.5814C45.0392 28.3471 44.9083 28.1317 44.7347 27.9494C44.5612 27.7671 44.3491 27.6221 44.1123 27.5239C43.8755 27.4257 43.6196 27.3767 43.3615 27.38L39.8719 27.4266C39.6252 27.4299 39.3818 27.481 39.1564 27.5767C38.931 27.6725 38.7284 27.8109 38.5608 27.9837C38.3932 28.1564 38.2641 28.3598 38.1815 28.5815C38.0988 28.8033 38.0642 29.0387 38.0798 29.2736Z" fill="#683C95"/>
<path d="M44.9554 52.6626C44.7377 53.2876 44.3306 53.8371 43.7856 54.2414C43.2405 54.6458 42.582 54.8869 41.8932 54.9343C41.2045 54.9818 40.5165 54.8333 39.9162 54.5078C39.3159 54.1822 38.8303 53.6942 38.5208 53.1055C38.2113 52.5167 38.0917 51.8536 38.1773 51.2001C38.2629 50.5465 38.5497 49.9318 39.0015 49.4338C39.4533 48.9357 40.0498 48.5766 40.7156 48.4018C41.3814 48.2271 42.0865 48.2446 42.7419 48.4521C43.1771 48.5898 43.5796 48.8081 43.9264 49.0942C44.2732 49.3804 44.5575 49.729 44.763 50.12C44.9686 50.511 45.0914 50.9367 45.1244 51.373C45.1574 51.8093 45.1 52.2475 44.9554 52.6626Z" fill="#683C95"/>
</svg>
