<svg width="20" height="27" viewBox="0 0 20 27" fill="none" xmlns="http://www.w3.org/2000/svg">
<g clip-path="url(#clip0)">
<path d="M12.1311 0.0804443H1.81992C0.84882 0.0804443 0 0.968744 0 1.98501V24.8366C0 25.8518 0.84882 26.7412 1.81992 26.7412H17.5898C18.5599 26.7412 19.4097 25.8529 19.4097 24.8366V7.69764L15.1636 4.52408L12.1311 0.0804443Z" fill="#673AB7"/>
<path d="M7.27883 19.7573H14.5575V18.4883H7.27883V19.7573ZM7.27883 11.5056V12.7746H14.5575V11.5056H7.27883ZM6.18647 12.1411C6.18647 12.6487 5.82269 13.1563 5.21639 13.1563C4.61009 13.1563 4.24631 12.7756 4.24631 12.1411C4.24631 11.5066 4.61009 11.1259 5.21639 11.1259C5.82269 11.1259 6.18647 11.6325 6.18647 12.1411ZM6.18647 15.6954C6.18647 16.203 5.82269 16.7106 5.21639 16.7106C4.61009 16.7106 4.24631 16.3299 4.24631 15.6954C4.24631 15.0609 4.61009 14.6802 5.21639 14.6802C5.82269 14.6802 6.18647 15.1878 6.18647 15.6954ZM6.18647 19.1228C6.18647 19.6304 5.82269 20.138 5.21639 20.138C4.61009 20.138 4.24631 19.7573 4.24631 19.1228C4.24631 18.4883 4.61009 18.1076 5.21639 18.1076C5.82269 18.1076 6.18647 18.6152 6.18647 19.1228ZM7.27883 16.5837H14.5575V15.3136H7.27883V16.5837Z" fill="#F1F1F1"/>
<path d="M12.6161 7.18994L19.4097 14.1726V7.69754L12.6161 7.18994Z" fill="url(#paint0_linear)"/>
<path d="M12.131 0.0803833V5.79302C12.131 6.80821 12.9798 7.69758 13.9509 7.69758H19.4096L12.131 0.0803833Z" fill="#B39DDB"/>
<path d="M1.81992 0.0804443C0.84882 0.0804443 0 0.968744 0 1.98501V2.11191C0 1.09564 0.84882 0.207344 1.81992 0.207344H12.1311V0.0804443H1.81992Z" fill="white" fill-opacity="0.2"/>
<path d="M17.5898 26.6131H1.81992C0.84882 26.6131 0 25.7248 0 24.7085V24.8354C0 25.8506 0.84882 26.74 1.81992 26.74H17.5898C18.5599 26.74 19.4097 25.8517 19.4097 24.8354V24.7085C19.4097 25.7248 18.5599 26.6131 17.5898 26.6131Z" fill="#311B92" fill-opacity="0.2"/>
<path d="M13.9497 7.6975C12.9797 7.6975 12.1298 6.8092 12.1298 5.79294V5.91984C12.1298 6.93504 12.9786 7.8244 13.9497 7.8244H19.4085V7.6975H13.9497Z" fill="#311B92" fill-opacity="0.1"/>
<path d="M12.1311 0.0804443H1.81992C0.84882 0.0804443 0 0.968744 0 1.98501V24.8366C0 25.8518 0.84882 26.7412 1.81992 26.7412H17.5898C18.5599 26.7412 19.4097 25.8529 19.4097 24.8366V7.69764L12.1311 0.0804443Z" fill="url(#paint1_radial)"/>
</g>
<defs>
<linearGradient id="paint0_linear" x1="16.0125" y1="7.74567" x2="16.0125" y2="14.1993" gradientUnits="userSpaceOnUse">
<stop stop-color="#311B92" stop-opacity="0.2"/>
<stop offset="1" stop-color="#311B92" stop-opacity="0.02"/>
</linearGradient>
<radialGradient id="paint1_radial" cx="0" cy="0" r="1" gradientUnits="userSpaceOnUse" gradientTransform="translate(0.614055 0.79194) scale(250.362 262.004)">
<stop stop-color="white" stop-opacity="0.1"/>
<stop offset="1" stop-color="white" stop-opacity="0"/>
</radialGradient>
<clipPath id="clip0">
<rect width="19.4097" height="26.6597" fill="white" transform="translate(0 0.0804443)"/>
</clipPath>
</defs>
</svg>
