<svg width="727" height="585" viewBox="0 0 727 585" fill="none" xmlns="http://www.w3.org/2000/svg">
<line x1="146.771" y1="559.506" x2="456.923" y2="559.506" stroke="black" stroke-width="1.42913"/>
<path d="M549.788 347.28H551.217V345.851V210.083C551.217 106.686 467.397 22.8663 364 22.8663C260.603 22.8663 176.784 106.686 176.784 210.083V210.083V345.851V347.28H178.213H549.788Z" fill="white" stroke="#C4C4C4" stroke-width="2.85827"/>
<line x1="178.206" y1="189.254" x2="549.792" y2="189.254" stroke="#C4C4C4" stroke-width="1.42913"/>
<line x1="211.081" y1="105.753" x2="516.919" y2="105.753" stroke="#C4C4C4" stroke-width="1.42913"/>
<line x1="364.715" y1="21.437" x2="364.715" y2="188.646" stroke="#C4C4C4" stroke-width="1.42913"/>
<circle cx="410.447" cy="320.841" r="33.5846" fill="black"/>
<circle cx="411.161" cy="308.693" r="14.2913" fill="white"/>
<circle cx="405.445" cy="311.551" r="5.71654" fill="black"/>
<path d="M421.609 342.576C419.882 344.158 417.412 344.636 415.218 343.813L411.019 342.238C405.138 340.032 405.855 331.494 412.021 330.299L419.529 328.845C425.695 327.651 429.548 335.303 424.917 339.546L421.609 342.576Z" fill="white"/>
<path d="M410.422 254.386C419.934 254.386 429.234 259.719 438.326 266.84C448.883 275.107 441.448 294.759 428.04 294.759H395.995C382.301 294.759 374.38 273.488 385.244 265.153C393.405 258.892 401.669 254.386 410.422 254.386Z" fill="#F06E7A"/>
<rect x="377.218" y="320.126" width="8.28898" height="26.041" rx="4.14449" transform="rotate(28.6077 377.218 320.126)" fill="black"/>
<rect x="435.457" y="324.353" width="8.28898" height="26.041" rx="4.14449" transform="rotate(-30.6616 435.457 324.353)" fill="black"/>
<rect width="435.886" height="22.8661" rx="11.4331" transform="matrix(1 0 0 -1 143.913 368.716)" fill="#C4C4C4"/>
<circle cx="303.262" cy="510.915" r="33.5846" fill="black"/>
<circle cx="305.406" cy="504.484" r="14.2913" fill="white"/>
<circle cx="305.406" cy="504.484" r="5.71654" fill="black"/>
<path d="M293.893 446.95C303.284 445.441 313.313 449.231 323.42 454.818C335.155 461.305 330.933 481.888 317.695 484.016L286.056 489.101C272.536 491.275 261.339 471.531 270.743 461.577C277.806 454.1 285.251 448.339 293.893 446.95Z" fill="#C4C4C4"/>
<rect x="288.271" y="534.496" width="8.28898" height="26.041" rx="4.14449" fill="black"/>
<rect x="311.137" y="534.496" width="8.28898" height="26.041" rx="4.14449" fill="black"/>
<circle cx="290.567" cy="408.219" r="33.5846" transform="rotate(-12.5949 290.567 408.219)" fill="black"/>
<path d="M276.051 343.369C285.334 341.294 295.573 344.472 306 349.438C318.105 355.205 315.134 376.005 302.048 378.928L270.775 385.916C257.411 388.902 245.041 369.871 253.827 359.367C260.426 351.477 267.509 345.277 276.051 343.369Z" fill="#F06E7A"/>
<rect x="326.971" y="368.05" width="8.28898" height="26.041" rx="4.14449" transform="rotate(40.7741 326.971 368.05)" fill="black"/>
<rect x="238.028" y="388.341" width="8.28898" height="26.041" rx="4.14449" transform="rotate(-57.4946 238.028 388.341)" fill="black"/>
<rect x="276.836" y="433.027" width="8.28898" height="26.041" rx="4.14449" fill="black"/>
<rect x="299.702" y="433.027" width="8.28898" height="26.041" rx="4.14449" fill="black"/>
<path d="M62.1287 124.334H53.747C47.9769 132.527 48.4388 136.163 53.747 141.484H122.477" stroke="#C4C4C4" stroke-width="1.42913"/>
<path d="M147.096 172.925H155.478C161.248 164.733 160.786 161.097 155.478 155.776L86.748 155.776" stroke="#C4C4C4" stroke-width="1.42913"/>
<path d="M13.5378 200.079H5.15618C-0.613932 208.271 -0.152044 211.907 5.15618 217.228H73.8858" stroke="#C4C4C4" stroke-width="1.42913"/>
<path d="M62.1287 268.677H53.747C47.9769 276.87 48.4388 280.506 53.747 285.827H122.477" stroke="#C4C4C4" stroke-width="1.42913"/>
<path d="M145.667 317.268H154.049C159.819 309.075 159.357 305.439 154.049 300.118H85.3193" stroke="#C4C4C4" stroke-width="1.42913"/>
<path d="M13.5378 317.268H5.15618C-0.613932 325.46 -0.152044 329.096 5.15618 334.417H73.8858" stroke="#C4C4C4" stroke-width="1.42913"/>
<path d="M580.904 55.7363H572.522C566.752 63.9287 567.214 67.565 572.522 72.8859H641.252" stroke="#C4C4C4" stroke-width="1.42913"/>
<path d="M618.061 104.327H609.68C603.91 112.519 604.371 116.155 609.68 121.476H678.409" stroke="#C4C4C4" stroke-width="1.42913"/>
<path d="M580.904 171.496H572.522C566.752 179.688 567.214 183.325 572.522 188.646H641.252" stroke="#C4C4C4" stroke-width="1.42913"/>
<path d="M703.029 55.7363H711.41C717.18 47.544 716.718 43.9077 711.41 38.5867L642.681 38.5867" stroke="#C4C4C4" stroke-width="1.42913"/>
<path d="M703.029 225.803H711.41C717.18 217.611 716.718 213.975 711.41 208.654H642.681" stroke="#C4C4C4" stroke-width="1.42913"/>
<path d="M49.2664 501.626H40.8847C35.1146 509.818 35.5765 513.455 40.8847 518.776H109.614" stroke="#C4C4C4" stroke-width="1.42913"/>
<path d="M447.995 395.87H439.613C433.843 404.062 434.305 407.699 439.613 413.02H508.343" stroke="#C4C4C4" stroke-width="1.42913"/>
<path d="M395.117 473.043H386.735C380.965 481.236 381.427 484.872 386.735 490.193H455.465" stroke="#C4C4C4" stroke-width="1.42913"/>
<path d="M249.886 481.618H255.473C259.32 475.474 259.012 472.747 255.473 468.756H209.654" stroke="#C4C4C4" stroke-width="1.42913"/>
<path d="M568.691 467.327H577.072C582.842 459.134 582.381 455.498 577.072 450.177H508.343" stroke="#C4C4C4" stroke-width="1.42913"/>
<path d="M148.311 526.392C162.974 530.381 181.627 526.531 176.611 539.69C166.06 548.106 157.556 541.691 148.311 526.392Z" fill="#F06E7A"/>
<path d="M124.301 487.194C139.495 487.487 156.646 479.206 154.99 493.191C146.809 503.925 136.997 499.778 124.301 487.194Z" fill="#F06E7A"/>
<path d="M190.86 486.009C179.512 496.116 161.099 500.984 171.454 510.528C184.65 513.358 189.404 503.825 190.86 486.009Z" fill="#F06E7A"/>
<path d="M108.078 450.775C121.68 457.556 141.638 455.382 132.662 470.639C119.514 479.417 112.847 470.522 108.078 450.775Z" fill="#F06E7A"/>
<path d="M200.285 453.03C185.202 454.879 167.292 448.399 170.372 462.141C179.61 471.98 188.946 466.849 200.285 453.03Z" fill="#F06E7A"/>
<path d="M199.483 406.217C192.885 419.909 196.221 440.214 179.389 430.83C169.304 417.326 178.52 410.712 199.483 406.217Z" fill="#F06E7A"/>
<path d="M179.641 559.506C175.371 506.611 163.692 487.181 127.478 469.471" stroke="black" stroke-width="2.85827"/>
<path d="M163.921 498.768C168.224 470.044 171.379 454.146 182.5 427.311" stroke="black" stroke-width="2.85827"/>
</svg>
